<svg width="112" height="112" viewBox="0 0 16 16" fill="none" xmlns="http://www.w3.org/2000/svg">
    <path d="M0 0H16V16H0V0Z" fill="#F7DF1E"/>
    <path d="M4.207 13.3708L5.43138 12.6298C5.66763 13.0486 5.8825 13.403 6.39794 13.403C6.892 13.403 7.20357 13.2097 7.20357 12.458V7.34558H8.70713V12.4792C8.70713 14.0365 7.79425 14.7454 6.46238 14.7454C5.25956 14.7454 4.56138 14.1225 4.20694 13.3706" fill="black"/>
    <path d="M9.5238 13.2096L10.7481 12.5008C11.0704 13.0271 11.4892 13.4137 12.2302 13.4137C12.8533 13.4137 13.2506 13.1022 13.2506 12.6726C13.2506 12.1571 12.8424 11.9745 12.1551 11.6738L11.7792 11.5126C10.6944 11.0509 9.97487 10.4709 9.97487 9.24652C9.97487 8.11877 10.8341 7.25952 12.1766 7.25952C13.1325 7.25952 13.8199 7.59252 14.3139 8.46246L13.1431 9.21433C12.8853 8.75252 12.6062 8.56996 12.1766 8.56996C11.7362 8.56996 11.4569 8.84921 11.4569 9.21433C11.4569 9.6654 11.7362 9.84808 12.3806 10.1273L12.7564 10.2884C14.0346 10.8362 14.7541 11.3946 14.7541 12.6511C14.7541 14.0045 13.6909 14.7455 12.2624 14.7455C10.8662 14.7455 9.96406 14.0796 9.52374 13.2096" fill="black"/>
</svg>

